<?xml version="1.0" encoding="UTF-8"?>
<svg id="Camada_2" data-name="Camada 2" xmlns="http://www.w3.org/2000/svg" viewBox="0 0 1018.32 320.32">
  <defs>
    <style>
      .cls-1 {
        fill: #e8e8e8;
      }
    </style>
  </defs>
  <g id="Camada_1-2" data-name="Camada 1">
    <g>
      <g>
        <g>
          <path class="cls-1" d="M632.19,112.29v17.82h-46.56v22.27h40.35v16.47h-40.35v39.81h-21.19v-96.37h67.75Z"/>
          <path class="cls-1" d="M696.43,112.29c4.32,0,8.21.7,11.67,2.09,3.46,1.4,6.43,3.31,8.91,5.74,2.47,2.43,4.36,5.24,5.67,8.44,1.3,3.2,1.96,6.64,1.96,10.33,0,5.67-1.19,10.57-3.58,14.71-2.39,4.14-6.28,7.29-11.67,9.45v.27c2.61.72,4.77,1.82,6.48,3.31,1.71,1.48,3.1,3.24,4.18,5.26,1.08,2.02,1.87,4.25,2.36,6.68.49,2.43.83,4.86,1.01,7.29.09,1.53.18,3.33.27,5.4.09,2.07.25,4.18.47,6.34.22,2.16.58,4.21,1.08,6.14.49,1.94,1.24,3.58,2.23,4.93h-21.19c-1.17-3.06-1.89-6.7-2.16-10.93-.27-4.23-.68-8.28-1.22-12.15-.72-5.04-2.25-8.73-4.59-11.07-2.34-2.34-6.16-3.51-11.47-3.51h-21.19v37.66h-21.19v-96.37h51.96ZM688.87,155.89c4.86,0,8.5-1.08,10.93-3.24s3.64-5.67,3.64-10.53-1.21-8.07-3.64-10.19c-2.43-2.11-6.07-3.17-10.93-3.17h-23.21v27.13h23.21Z"/>
          <path class="cls-1" d="M740.97,140.84c2.16-6.16,5.26-11.54,9.31-16.13,4.05-4.59,9.02-8.19,14.91-10.8,5.89-2.61,12.53-3.91,19.91-3.91s14.12,1.31,19.97,3.91c5.85,2.61,10.8,6.21,14.85,10.8,4.05,4.59,7.15,9.97,9.31,16.13,2.16,6.16,3.24,12.84,3.24,20.04s-1.08,13.56-3.24,19.64c-2.16,6.07-5.26,11.36-9.31,15.86-4.05,4.5-9,8.03-14.85,10.59-5.85,2.56-12.51,3.85-19.97,3.85s-14.02-1.28-19.91-3.85c-5.89-2.56-10.86-6.09-14.91-10.59-4.05-4.5-7.15-9.79-9.31-15.86-2.16-6.07-3.24-12.62-3.24-19.64s1.08-13.88,3.24-20.04ZM760.33,172.69c.95,3.83,2.45,7.27,4.52,10.32,2.07,3.06,4.77,5.51,8.1,7.36,3.33,1.85,7.38,2.77,12.15,2.77s8.82-.92,12.15-2.77c3.33-1.84,6.03-4.3,8.1-7.36,2.07-3.06,3.58-6.5,4.52-10.32.95-3.82,1.42-7.76,1.42-11.81s-.47-8.32-1.42-12.28c-.94-3.96-2.45-7.49-4.52-10.59-2.07-3.1-4.77-5.58-8.1-7.42-3.33-1.84-7.38-2.77-12.15-2.77s-8.82.92-12.15,2.77c-3.33,1.85-6.03,4.32-8.1,7.42-2.07,3.1-3.58,6.64-4.52,10.59-.94,3.96-1.42,8.05-1.42,12.28s.47,7.99,1.42,11.81Z"/>
          <path class="cls-1" d="M867.97,112.29l40.22,64.65h.27v-64.65h19.84v96.37h-21.19l-40.08-64.51h-.27v64.51h-19.84v-96.37h21.05Z"/>
          <path class="cls-1" d="M939.36,130.11v-17.82h78.95v17.82h-28.88v78.55h-21.19v-78.55h-28.88Z"/>
        </g>
        <g>
          <path class="cls-1" d="M586.56,289.86c1.16,2.24,2.7,4.05,4.62,5.43,1.92,1.39,4.18,2.41,6.77,3.08,2.59.67,5.27,1.01,8.04,1.01,1.88,0,3.89-.16,6.03-.47,2.14-.31,4.16-.92,6.03-1.81,1.88-.89,3.44-2.12,4.69-3.69,1.25-1.56,1.88-3.55,1.88-5.97,0-2.59-.83-4.69-2.48-6.3-1.65-1.61-3.82-2.95-6.5-4.02-2.68-1.07-5.72-2.01-9.12-2.82-3.4-.8-6.84-1.7-10.32-2.68-3.58-.89-7.06-1.99-10.46-3.28-3.4-1.29-6.43-2.97-9.12-5.03-2.68-2.05-4.85-4.62-6.5-7.71-1.65-3.08-2.48-6.81-2.48-11.19,0-4.91,1.05-9.18,3.15-12.8,2.1-3.62,4.85-6.64,8.24-9.05,3.4-2.41,7.24-4.2,11.53-5.36,4.29-1.16,8.58-1.74,12.87-1.74,5,0,9.81.56,14.41,1.68,4.6,1.12,8.69,2.93,12.27,5.43,3.57,2.5,6.41,5.7,8.51,9.59,2.1,3.89,3.15,8.6,3.15,14.14h-20.38c-.18-2.86-.78-5.23-1.81-7.11-1.03-1.88-2.39-3.35-4.09-4.42-1.7-1.07-3.64-1.83-5.83-2.28-2.19-.45-4.58-.67-7.17-.67-1.7,0-3.4.18-5.09.54-1.7.36-3.24.98-4.62,1.88-1.39.89-2.53,2.01-3.42,3.35-.89,1.34-1.34,3.04-1.34,5.09,0,1.88.36,3.4,1.07,4.56.71,1.16,2.12,2.24,4.22,3.22,2.1.98,5,1.97,8.71,2.95,3.71.98,8.56,2.24,14.55,3.75,1.79.36,4.27,1.01,7.44,1.94,3.17.94,6.32,2.44,9.45,4.49,3.13,2.06,5.83,4.81,8.11,8.24,2.28,3.44,3.42,7.84,3.42,13.2,0,4.38-.85,8.45-2.55,12.2-1.7,3.75-4.22,6.99-7.57,9.72-3.35,2.73-7.51,4.85-12.47,6.37-4.96,1.52-10.7,2.28-17.23,2.28-5.27,0-10.39-.65-15.35-1.94-4.96-1.29-9.34-3.33-13.14-6.1-3.8-2.77-6.82-6.3-9.05-10.59-2.24-4.29-3.31-9.38-3.22-15.28h20.38c0,3.22.58,5.94,1.74,8.18Z"/>
          <path class="cls-1" d="M718.87,243.27c-1.25-2.01-2.82-3.77-4.69-5.3-1.88-1.52-4-2.7-6.37-3.55-2.37-.85-4.85-1.27-7.44-1.27-4.74,0-8.76.92-12.07,2.75-3.31,1.83-5.99,4.29-8.04,7.37-2.06,3.08-3.55,6.59-4.49,10.52-.94,3.93-1.41,8-1.41,12.2s.47,7.93,1.41,11.73c.94,3.8,2.43,7.22,4.49,10.26,2.06,3.04,4.74,5.48,8.04,7.31,3.31,1.83,7.33,2.75,12.07,2.75,6.43,0,11.46-1.96,15.08-5.9,3.62-3.93,5.83-9.12,6.64-15.55h20.38c-.54,5.99-1.92,11.39-4.16,16.22-2.24,4.83-5.18,8.94-8.85,12.33-3.67,3.4-7.96,5.99-12.87,7.78-4.92,1.79-10.32,2.68-16.22,2.68-7.33,0-13.92-1.27-19.77-3.82-5.85-2.55-10.79-6.05-14.81-10.52-4.02-4.47-7.1-9.72-9.25-15.75s-3.22-12.53-3.22-19.51,1.07-13.78,3.22-19.91c2.14-6.12,5.23-11.46,9.25-16.02,4.02-4.56,8.96-8.13,14.81-10.72,5.85-2.59,12.44-3.89,19.77-3.89,5.27,0,10.26.76,14.95,2.28,4.69,1.52,8.89,3.73,12.6,6.64,3.71,2.9,6.77,6.5,9.18,10.79,2.41,4.29,3.93,9.21,4.56,14.75h-20.38c-.36-2.41-1.16-4.62-2.41-6.64Z"/>
          <path class="cls-1" d="M804.54,217.73l35.79,95.72h-21.85l-7.24-21.32h-35.79l-7.51,21.32h-21.18l36.2-95.72h21.58ZM805.74,276.45l-12.07-35.12h-.27l-12.47,35.12h24.8Z"/>
          <path class="cls-1" d="M869.69,217.73v78.02h46.65v17.7h-67.7v-95.72h21.05Z"/>
          <path class="cls-1" d="M999.72,217.73v17.7h-50.54v20.51h46.38v16.36h-46.38v23.46h51.61v17.7h-72.66v-95.72h71.59Z"/>
        </g>
        <g>
          <path class="cls-1" d="M585.49,7.02l40.22,64.65h.27V7.02h19.84v96.37h-21.19l-40.08-64.51h-.27v64.51h-19.84V7.02h21.05Z"/>
          <path class="cls-1" d="M663.5,35.57c2.16-6.16,5.26-11.54,9.31-16.13,4.05-4.59,9.02-8.19,14.91-10.8,5.89-2.61,12.53-3.91,19.91-3.91s14.12,1.31,19.97,3.91c5.85,2.61,10.8,6.21,14.85,10.8,4.05,4.59,7.15,9.97,9.31,16.13,2.16,6.16,3.24,12.84,3.24,20.04s-1.08,13.56-3.24,19.64c-2.16,6.07-5.26,11.36-9.31,15.86-4.05,4.5-9,8.03-14.85,10.59-5.85,2.56-12.51,3.85-19.97,3.85s-14.02-1.28-19.91-3.85c-5.89-2.56-10.86-6.09-14.91-10.59-4.05-4.5-7.15-9.79-9.31-15.86-2.16-6.07-3.24-12.62-3.24-19.64s1.08-13.88,3.24-20.04ZM682.87,67.42c.95,3.83,2.45,7.27,4.52,10.32,2.07,3.06,4.77,5.51,8.1,7.36,3.33,1.85,7.38,2.77,12.15,2.77s8.82-.92,12.15-2.77c3.33-1.84,6.03-4.3,8.1-7.36,2.07-3.06,3.58-6.5,4.52-10.32.95-3.82,1.42-7.76,1.42-11.81s-.47-8.32-1.42-12.28c-.94-3.96-2.45-7.49-4.52-10.59-2.07-3.1-4.77-5.58-8.1-7.42-3.33-1.84-7.38-2.77-12.15-2.77s-8.82.92-12.15,2.77c-3.33,1.85-6.03,4.32-8.1,7.42-2.07,3.1-3.58,6.64-4.52,10.59-.94,3.96-1.42,8.05-1.42,12.28s.47,7.99,1.42,11.81Z"/>
        </g>
      </g>
      <g id="mVIDIS">
        <g>
          <rect class="cls-1" x="520.5" y=".22" width="14.62" height="319.94"/>
          <path class="cls-1" d="M499.39,320.16c-.7-8.03.88-16.02.84-23.99-.15-32.01-3.47-64.47-4.11-96.55-.75-37.17.52-74.31,1.68-111.26.91-29.13,2.68-58.13,1.72-87.19.59-.12,1.61-.95,1.9-.95h12.59l-.78,62.97c-3.55,52.7-3.18,106.26-1.62,159.09.96,32.69,3.17,65.11,2.4,97.88h-14.62Z"/>
          <path class="cls-1" d="M479.09,320.16c-.27-8.23.35-16.56.03-24.8-1.02-26.28-5.38-52.5-7.33-78.74-2.71-36.43-2.71-76.42,0-112.86,1.59-21.4,5.18-42.72,6.48-64.17.76-12.62.9-25.32.79-38.02.5-2.16,10.98-1.12,13.03-1.36-.36,2.65.66,5.11.84,7.68,2.07,30.06-5.04,65.53-7.33,95.86-2.76,36.44-2.74,76.46,0,112.86,2.59,34.43,9.39,68.98,6.49,103.54h-12.99Z"/>
          <path class="cls-1" d="M457.97,320.16c1.76-41.66-10.77-81.9-14.61-123.03-2.75-29.48-1.9-59.04,1.73-88.39,4.42-35.69,14.57-70.87,12.83-107.21.47-1.72,11.03-1.29,13.05-1.32,2.22,40.1-9.51,78.8-13.71,118.26-2.33,21.9-3.22,44.55-1.72,66.48,3.1,45.34,17.51,89.44,15.42,135.21h-12.99Z"/>
          <path class="cls-1" d="M436.86,320.16c1.29-48.61-20.39-93.67-24.35-141.71-4.96-60.22,20.59-105.51,24.35-161.59.36-5.35-1.21-12.15,1.23-16.64h11.77c1.13,51.91-23.05,99.87-25.21,151.41-2.45,58.5,25.62,110.51,25.21,168.54h-12.99Z"/>
          <path class="cls-1" d="M416.56,320.17c-.41-19.53-4.83-38.07-10.34-56.66-11.81-39.85-28.49-74.24-24.47-117.42,4.62-49.6,34.55-95.21,34.81-145.87l11.83.76c1.06,48.39-27.46,92.62-33.63,139.43-8.11,61.48,27.87,107.06,33.17,164.74.16,1.75.94,13.03.72,13.68-.87,2.59-9.6.83-12.09,1.34Z"/>
          <path class="cls-1" d="M395.45,320.16c-2.19-58.69-48.64-106.29-45.51-166.1,2.84-54.25,44-99.37,45.51-153.84h11.37c.5,52.13-38.3,96.33-44.56,146.67-7.67,61.66,44.64,112.43,44.56,173.27h-11.37Z"/>
          <path class="cls-1" d="M374.33,320.16c-1.64-39.49-26.96-73.16-42.37-108.26-17.85-40.64-17.02-65.37,1.07-105.59,15.39-34.23,39.85-67.37,41.29-106.09l11.02.76c-.04,19.98-7.81,39.98-16,58-23.89,52.58-54.61,82.08-29.51,143.43,15.87,38.78,44.42,74.14,45.87,117.76h-11.37Z"/>
          <path class="cls-1" d="M354.07,320.12c-4.54-43.95-36.19-77.37-54.33-115.79-18.55-39.28-13.45-63.06,6.24-99.91,17.95-33.57,44.21-64.86,48.09-104.16l10.45.84.11,1.12c-3.69,38.03-27.75,68.47-45.66,100.58-24.99,44.81-27.61,64.82-2.44,110.72,18.68,34.06,45.08,66.25,48.05,106.64l-10.52-.04Z"/>
          <path class="cls-1" d="M332.92,320.17c-4.91-43.95-39.68-76.75-60.23-113.96-23.46-42.47-15.51-67.28,8.73-106.04,19.72-31.53,47.76-61.31,51.49-99.95l10.56.82c-4.38,40.18-32.29,70.76-52.81,103.51-25.2,40.23-30.75,60.13-5.51,102.99,21.16,35.93,53.3,68,58.1,111.44-.38,2.16-8.33.84-10.35,1.19Z"/>
          <path class="cls-1" d="M311.8,320.17c-1.02-22.34-14.51-42.58-26.94-60.35-20.29-28.99-56.86-66.55-54.29-104.12,2.22-32.4,34.5-66.92,52.67-92.69,13.12-18.61,27.5-39.21,28.57-62.79l9.66.9c-3.81,43.02-38.44,74.62-61.14,108.8-26.69,40.18-26.78,60.42,0,100.55,22.91,34.34,57.47,66.44,61.24,109.7h-9.75Z"/>
          <path class="cls-1" d="M291.51,320.16c-6.3-46.2-47.05-77.14-70.99-114.56-40.44-63.21,8.23-99.31,43.69-146.99,12.83-17.25,25.63-36.26,27.3-58.37l8.83.9c-5.12,50.21-51.19,82.3-74.95,123.4-20.9,36.15-11.28,57.15,11.37,88.38,24.06,33.17,59.66,64.14,63.68,107.26h-8.93Z"/>
          <path class="cls-1" d="M270.39,320.17c-.07-14.69-7.3-29.21-15.09-41.35-21.82-34.04-74.57-76.86-74.3-119.03.22-35,37.23-70.03,57.71-95.84,14.53-18.32,31.14-39.32,31.69-63.73,1.98.19,4.22-.27,6.14-.03,1.55.19,2.7.12,2.83,2.06s-1.35,8.7-1.89,11.13c-11.71,53.16-91.38,99.9-87.45,151.27,2.46,32.19,41.99,68.84,61.23,93.87,12.07,15.71,27.86,40.03,28.11,60.42.02,1.72.03,1.04-1.22,1.23-2.34.35-5.3-.26-7.74,0Z"/>
          <path class="cls-1" d="M250.18,320.07c-5.26-40.5-38.74-68.92-62.12-99.87-36.12-47.8-35.42-73.37.81-120.82,23.3-30.51,56.24-59.02,61.31-99.06l8.04.73c-4.86,42.41-39.02,71.46-63.31,103.56-24.89,32.89-36.31,55.21-12.55,93.69,24.72,40.04,69.59,71.13,75.64,120.69-.33,1.91-6.19,1.13-7.82,1.09Z"/>
          <path class="cls-1" d="M228.98,320.17c-6.14-48.57-50.35-80.62-73.22-121.26-20.36-36.2-12.21-60.51,10.03-92.56C188.89,73.07,224.01,42.22,228.98.22c1.45.12,3.1-.22,4.51-.04,5.05.67,2.24,7.36,1.44,11.26-7.11,34.47-38.96,65.6-59.06,93.6-31.68,44.13-32.63,64.92-.79,109.47,23.3,32.6,57.76,63.48,61.22,105.66h-7.31Z"/>
          <path class="cls-1" d="M207.86,320.17c-1.14-23.55-15.31-44.96-28.24-63.93-17.59-25.79-48.18-59.56-50.51-91.59-2.68-36.9,35.19-77,54.57-106.18,11.54-17.38,23.36-36.84,24.18-58.24,1.82.24,6.49-.92,7.23,1.34-4.4,40.62-34.72,71-56.29,103.48-32.28,48.62-28.64,68.21,3.25,115.17,21.03,30.97,49.75,60.83,53.12,99.95h-7.32Z"/>
          <path class="cls-1" d="M187.61,320.12c-4.18-39.44-31.7-70.02-51.04-102.83-28.24-47.9-26.19-70.14,1.94-117.11,18.95-31.64,45.33-61.68,49.07-99.94,8.41-1.28,6.37,2.86,5.45,9.1-4.96,33.77-33.64,68.07-50.78,97.01-27.87,47.08-24.77,66.49,2.75,112.24,17.96,29.86,46.61,64.38,49.07,100.36.17,2.44-5.12.8-6.47,1.17Z"/>
          <path class="cls-1" d="M166.45,320.17c-2.83-46.62-38.21-82.81-54.2-124.85-14.64-38.48-5.67-61.62,12.37-96.04,16.47-31.44,40.06-62.29,41.83-99.05h5.22c1.12,18.61-7.43,37.83-15.47,54.31-14.71,30.15-44.8,69.86-45.81,103.59-.99,33.08,25.36,68.76,40.24,97.06,10.51,19.98,21.33,41.93,21.51,64.98h-5.69Z"/>
          <path class="cls-1" d="M146.16,320.16c-1.9-37.76-23.14-69.73-37.51-103.38-16.41-38.42-19.95-62.33-4.54-102.27C118.67,76.76,144.11,42.08,146.16.23l4.4-.02c1.17,12.76-2.66,25.92-6.62,37.99-19.5,59.5-61.25,94.75-35.97,163.02,14.46,39.04,41.97,75.31,43.07,118.47l-4.88.46Z"/>
          <path class="cls-1" d="M125.04,320.17c-.49-51.89-35.17-95.71-40.59-146.58C77.79,111.12,123.89,61.31,125.04.22h4.41c1.4.19-.21,13.78-.46,15.72-7,54.59-46.17,100.95-39.57,158.36,5.76,50.11,40.52,94.38,40.51,145.86h-4.88Z"/>
          <path class="cls-1" d="M103.93,320.16c1.61-50.22-25.48-95.59-30.04-144.95-5.05-54.6,22.48-99.94,29.11-151.96.9-7.03,1.59-14.95,1.13-21.85l4.67-1.18c1.45,50.95-27.89,99.15-30.89,148.98-3.61,59.87,30.95,111.69,30.9,170.97h-4.88Z"/>
          <path class="cls-1" d="M83.62,320.17c1.47-34.34-9.02-67.26-15.17-100.54-4.58-24.79-7.13-49.16-5.98-74.49,2.22-48.83,22.65-95.24,21.14-144.45.14-1.07,3.83-.59,3.96.87,1.12,39.98-12.74,78-18.31,117.07-2.93,20.51-4.3,40.75-2.68,61.46,3.71,47.25,21.9,92.32,21.11,140.09h-4.07Z"/>
          <path class="cls-1" d="M65.76.22c.93,5.24.97,10.56.86,15.88-.98,47.12-13.66,93.79-13.88,142.03-.24,52.08,16.22,107.27,13.84,156.82-.08,1.59.24,5.28-2.03,5.24-3.63-.08-1.15-6.15-1.18-8.5-.63-52.71-14.44-103.76-13.88-157.61.51-48.57,13.42-96.16,13.91-144.52.04-3.56-3.25-9.75,2.37-9.33Z"/>
          <path class="cls-1" d="M42.22,320.17l.03-35.36c-8.54-82.93-8.44-166.29,0-249.23l-.03-35.36h2.43c-.78,4.99.82,10.27.85,14.98.21,34.36-5.33,68.89-6.57,103.14-1.97,54.7,3.17,105.12,5.71,159.2.67,14.2.6,28.46,0,42.63h-2.43Z"/>
          <path class="cls-1" d="M21.1,320.17l.84-30.49c0-1.92-.86-3.7-.88-5.62-.57-63.94-1.72-127.61-.75-191.64.47-30.82,1.85-61.45.78-92.2h2.43s.04,57.29.04,57.29c-.03,1.92-.85,3.7-.88,5.62-1,58.16-.71,116.43.07,174.59.36,27.3,1.2,54.59.79,81.98l-2.45.48Z"/>
          <path class="cls-1" d="M2.42,320.16l-2.04-.8c-.47-.65.42-2.88.42-3.67V2.25C.8,2,.01,1.74,0,1.44L1.21.24l1.22,1.2v318.72Z"/>
        </g>
      </g>
    </g>
  </g>
</svg>